HIERARCHY
ROOT Hips
{
	OFFSET -3.958830 18.904000 13.208200
	CHANNELS 6 Xposition Yposition Zposition Zrotation Yrotation Xrotation 
	JOINT LHipJoint
	{
		OFFSET 0.000000 0.000000 0.000000
		CHANNELS 3 Zrotation Yrotation Xrotation
		JOINT LeftUpLeg
		{
			OFFSET 1.800000 -1.400000 0.085000
			CHANNELS 3 Zrotation Yrotation Xrotation
			JOINT LeftLeg
			{
				OFFSET 2.215000 -6.000000 0.000000
				CHANNELS 3 Zrotation Yrotation Xrotation
				JOINT LeftFoot
				{
					OFFSET 2.500000 -6.900000 0.000000
					CHANNELS 3 Zrotation Yrotation Xrotation
					JOINT LeftToeBase
					{
						OFFSET 0.200000 -0.500000 1.950000
						CHANNELS 3 Zrotation Yrotation Xrotation
						End Site
						{
							OFFSET 0.000000 0.000000 0.000000
						}
					}
				}
			}
		}
	}
	JOINT RHipJoint
	{
		OFFSET 0.000000 0.000000 0.000000
		CHANNELS 3 Zrotation Yrotation Xrotation
		JOINT RightUpLeg
		{
			OFFSET -1.800000 -1.400000 0.085000
			CHANNELS 3 Zrotation Yrotation Xrotation
			JOINT RightLeg
			{
				OFFSET -2.215000 -6.000000 0.000000
				CHANNELS 3 Zrotation Yrotation Xrotation
				JOINT RightFoot
				{
					OFFSET -2.500000 -6.900000 0.000000
					CHANNELS 3 Zrotation Yrotation Xrotation
					JOINT RightToeBase
					{
						OFFSET -0.200000 -0.500000 1.950000
						CHANNELS 3 Zrotation Yrotation Xrotation
						End Site
						{
							OFFSET 0.000000 0.000000 0.000000
						}
					}
				}
			}
		}
	}
	JOINT LowerBack
	{
		OFFSET 0.000000 0.000000 0.000000
		CHANNELS 3 Zrotation Yrotation Xrotation
		JOINT Spine
		{
			OFFSET -0.087000 1.940000 -0.288900
			CHANNELS 3 Zrotation Yrotation Xrotation
			JOINT Spine1
			{
				OFFSET 0.000000 1.950000 0.060000
				CHANNELS 3 Zrotation Yrotation Xrotation
				JOINT Neck
				{
					OFFSET 0.000000 0.000000 0.000000
					CHANNELS 3 Zrotation Yrotation Xrotation
					JOINT Neck1
					{
						OFFSET 0.000000 1.600000 0.340000
						CHANNELS 3 Zrotation Yrotation Xrotation
						JOINT Head
						{
							OFFSET 0.000000 1.667000 -0.240000
							CHANNELS 3 Zrotation Yrotation Xrotation
							End Site
							{
								OFFSET 0.000000 0.000000 0.000000
							}
						}
					}
				}
				JOINT LeftShoulder
				{
					OFFSET 0.000000 0.000000 0.000000
					CHANNELS 3 Zrotation Yrotation Xrotation
					JOINT LeftArm
					{
						OFFSET 2.700000 1.550000 -0.730000
						CHANNELS 3 Zrotation Yrotation Xrotation
						JOINT LeftForeArm
						{
							OFFSET 5.450000 0.000000 0.000000
							CHANNELS 3 Zrotation Yrotation Xrotation
							JOINT LeftHand
							{
								OFFSET 3.450000 0.000000 0.000000
								CHANNELS 3 Zrotation Yrotation Xrotation
								JOINT LeftHandIndex1
								{
									OFFSET 0.750000 0.000000 0.000000
									CHANNELS 3 Zrotation Yrotation Xrotation
									End Site
									{
										OFFSET 0.000000 0.000000 0.000000
									}
								}
							}
						}
					}
				}
				JOINT RightShoulder
				{
					OFFSET 0.000000 0.000000 0.000000
					CHANNELS 3 Zrotation Yrotation Xrotation
					JOINT RightArm
					{
						OFFSET -2.700000 1.550000 -0.730000
						CHANNELS 3 Zrotation Yrotation Xrotation
						JOINT RightForeArm
						{
							OFFSET -5.450000 0.000000 0.000000
							CHANNELS 3 Zrotation Yrotation Xrotation
							JOINT RightHand
							{
								OFFSET -3.450000 0.000000 0.000000
								CHANNELS 3 Zrotation Yrotation Xrotation
								JOINT RightHandIndex1
								{
									OFFSET -0.750000 0.000000 0.000000
									CHANNELS 3 Zrotation Yrotation Xrotation
									End Site
									{
										OFFSET 0.000000 0.000000 0.000000
									}
								}
							}
						}
					}
				}
			}
		}
	}
}
MOTION
Frames: 10
Frame Time: 0.016667
-2.212310 16.938480 -1.406200 6.008394 0.947974 0.625041 -14.810344 11.858470 3.358103 21.307989 -1.282077 -25.078120 -14.152512 11.446101 25.238095 -0.258282 6.832826 1.895992 0.299680 0.072770 0.295660 18.840746 -9.170415 4.350852 -25.578869 7.950193 -36.427487 25.238553 -21.045853 43.160741 -1.495711 -8.958788 1.044903 -0.043140 -0.042700 0.245480 -4.926193 -1.222008 -8.470165 38.741599 -9.782679 21.170698 -13.619589 -1.387653 -1.223002 6.854751 -9.635795 -8.819192 -22.031649 9.765362 54.197485 -11.433980 0.745110 -20.031870 -31.168544 -2.329289 0.647800 -52.237498 2.043746 -9.546008 -43.254770 -33.653830 7.969311 -3.437448 2.892570 0.854230 -0.230500 0.363350 0.031680 15.653115 11.336005 3.864866 60.167631 14.961387 -6.132886 -7.700427 19.826546 -2.261974 2.326288 -0.891343 -0.124840 0.311620 0.141380 -0.168140 
-2.206120 16.940080 -1.407400 5.936039 1.156026 0.631516 -14.797165 11.834725 3.331653 21.292855 -1.251012 -24.859099 -14.209070 11.363762 24.845989 -0.261774 6.794022 1.913492 0.294090 0.060920 0.295300 18.855053 -9.197013 4.348752 -25.657036 7.927969 -36.306625 25.452464 -21.056450 42.925681 -1.486077 -8.963645 1.037847 -0.046880 -0.033980 0.255840 -4.965762 -1.136573 -8.448994 38.903421 -9.710154 20.777642 -13.830059 -1.460093 -1.046778 6.762832 -9.622261 -8.663841 -21.842957 9.654328 53.350152 -11.708070 1.015460 -19.521160 -30.996231 -2.258808 0.644811 -51.646117 1.987029 -9.281458 -44.195623 -33.384553 8.198331 -3.454970 2.918852 0.838800 -0.214800 0.350400 0.028680 15.641657 11.086415 3.734211 59.969200 15.147748 -5.835152 -7.140386 19.645807 -2.144834 2.330960 -0.906070 -0.122950 0.297260 0.145310 -0.169600 
-2.200670 16.940660 -1.410410 5.979529 1.605350 0.512131 -14.780238 11.825249 3.276665 21.066706 -1.290518 -24.630734 -13.991516 11.198889 24.640277 -0.274465 6.719794 1.945088 0.290030 0.053910 0.291120 18.870491 -9.243123 4.349763 -25.925445 7.745857 -36.075727 25.784041 -21.162166 42.658299 -1.480952 -8.992851 1.025057 -0.046010 -0.022210 0.262560 -5.012383 -1.046031 -8.418841 38.879844 -9.669804 20.358362 -14.057793 -1.620600 -0.685574 6.614205 -9.533907 -8.608011 -21.562478 9.583016 52.504964 -11.650260 1.307250 -19.006420 -30.495094 -2.504703 0.811706 -51.245732 1.796033 -9.099317 -45.210854 -33.365866 8.492908 -3.471920 2.944660 0.824950 -0.198540 0.337020 0.029450 15.462712 11.028587 3.680629 59.939471 15.325237 -5.595937 -6.512402 19.552942 -2.042428 2.330820 -0.922301 -0.124460 0.287250 0.147520 -0.170060 
-2.198420 16.939610 -1.412330 5.855340 1.990033 0.335496 -14.771566 11.817852 3.243471 21.111787 -1.267614 -24.369200 -13.887299 11.058270 24.278264 -0.292680 6.666371 1.967421 0.286350 0.047560 0.288970 18.877623 -9.268239 4.344440 -26.046181 7.642718 -35.720671 26.324736 -21.291216 42.256283 -1.483733 -9.009514 1.021131 -0.044850 -0.012780 0.266460 -5.036494 -0.996605 -8.401028 38.898004 -9.654364 20.103948 -14.243280 -1.724866 -0.403420 6.555123 -9.480738 -8.599626 -21.354168 9.553818 51.759591 -11.736280 1.579940 -19.024750 -29.992490 -2.704802 0.932754 -50.878461 1.582122 -8.912906 -45.907038 -33.388078 8.717750 -3.486353 2.952569 0.823560 -0.187370 0.329760 0.029580 15.104147 11.030839 3.685260 60.118447 15.504343 -5.377018 -5.793260 19.505954 -1.920899 2.325284 -0.926462 -0.130980 0.287640 0.151980 -0.173730 
-2.201590 16.939100 -1.411450 5.732635 2.244517 0.082068 -14.765506 11.831631 3.225542 21.280355 -1.200096 -24.041567 -13.823901 10.982430 23.993281 -0.293577 6.630271 1.977950 0.285210 0.051740 0.282640 18.877198 -9.309597 4.306300 -25.867859 7.593919 -35.205386 26.444034 -21.169265 41.906890 -1.473134 -8.962644 1.034596 -0.043310 -0.012660 0.265890 -5.046893 -0.968457 -8.380988 38.728268 -9.594831 20.071282 -14.281057 -1.775919 -0.262826 6.367903 -9.463911 -8.602980 -21.368516 9.523065 51.034952 -11.434330 1.678440 -19.294570 -29.555989 -2.827351 1.033539 -50.458196 1.435185 -8.751605 -46.516572 -33.458560 8.959180 -3.488150 2.967161 0.819190 -0.187070 0.327810 0.028780 15.067171 10.968358 3.721785 60.235611 15.284144 -5.641065 -5.206301 20.395733 -1.919546 2.317671 -0.929196 -0.128510 0.283180 0.152330 -0.171390 
-2.205120 16.942150 -1.411360 5.771738 2.591930 -0.236274 -14.763550 11.889939 3.184688 21.124809 -1.208147 -23.725951 -13.491817 10.816514 23.876430 -0.303184 6.554513 2.008676 0.286210 0.054870 0.277140 18.866387 -9.355336 4.275466 -25.825864 7.451277 -34.658844 26.505225 -21.095173 41.662148 -1.467872 -8.934460 1.046035 -0.042740 -0.008370 0.265280 -5.036407 -1.002884 -8.356461 38.219005 -9.576424 20.236841 -14.109909 -1.909275 -0.296599 6.146275 -9.535595 -8.574368 -21.536143 9.584066 50.256046 -11.068780 1.760460 -19.770350 -29.185109 -2.769521 1.070649 -50.108571 1.366960 -8.623785 -46.933986 -33.604534 9.173230 -3.488774 2.975131 0.820870 -0.187930 0.326470 0.032060 15.161293 10.826335 3.691760 60.149029 15.153555 -5.735053 -4.270210 20.963788 -1.803767 2.313300 -0.925407 -0.128900 0.285220 0.152250 -0.169220 
-2.205980 16.949310 -1.413230 5.706975 2.892931 -0.573760 -14.762500 11.947441 3.154984 21.059390 -1.184972 -23.431998 -13.203619 10.678707 23.750356 -0.302721 6.492753 2.040834 0.283710 0.059390 0.270570 18.853769 -9.402452 4.236733 -25.651204 7.358502 -34.064515 26.509901 -20.972032 41.403742 -1.460947 -8.889546 1.068069 -0.042990 0.002080 0.260690 -5.022781 -1.034721 -8.332109 37.889134 -9.592936 20.375167 -13.922251 -2.015657 -0.238737 5.977051 -9.628210 -8.630888 -21.736863 9.578525 49.596627 -10.930740 1.802920 -20.085310 -28.914580 -2.911628 1.216205 -49.686675 1.447530 -8.607700 -47.696371 -34.057417 9.573919 -3.489598 2.976177 0.816580 -0.185540 0.326220 0.039910 15.266968 10.981743 3.728404 59.814158 15.144808 -5.655487 -3.355274 21.072695 -1.639561 2.315872 -0.918551 -0.130040 0.297340 0.149010 -0.161590 
-2.205560 16.958130 -1.420880 5.508085 3.019060 -0.914054 -14.761934 11.967325 3.147351 21.279334 -1.096870 -23.078039 -13.214280 10.636980 23.473763 -0.307639 6.473427 2.046520 0.295020 0.077090 0.275770 18.846934 -9.428771 4.206421 -25.424705 7.388014 -33.610791 26.592576 -20.878166 41.215700 -1.463986 -8.856232 1.081417 -0.032830 -0.005150 0.255590 -5.015848 -1.032528 -8.322811 37.710044 -9.622006 20.584679 -13.788627 -2.075577 -0.055160 5.842596 -9.697489 -8.664213 -21.877449 9.504334 49.141023 -10.898090 1.747760 -20.823600 -28.512390 -3.064946 1.332533 -49.301417 1.353810 -8.528096 -48.629494 -34.375308 9.979892 -3.482639 2.980403 0.822610 -0.192860 0.332890 0.043490 15.175757 11.154555 3.723230 59.758200 15.415688 -5.463583 -2.721367 20.990310 -1.522280 2.315665 -0.916817 -0.130090 0.304080 0.142050 -0.162350 
-2.205040 16.967230 -1.429630 5.431191 2.989974 -1.155984 -14.761943 11.977066 3.146473 21.402384 -1.053448 -22.921103 -13.225484 10.683369 23.532496 -0.301718 6.495181 2.038794 0.300610 0.086550 0.277220 18.843910 -9.447777 4.182430 -25.225566 7.436152 -33.401803 26.417078 -20.729155 41.223913 -1.459357 -8.821996 1.089881 -0.026180 -0.006200 0.250360 -5.012175 -1.023860 -8.313413 37.376442 -9.648055 20.807361 -13.643478 -2.154551 0.003406 5.603422 -9.882605 -8.699005 -22.281211 9.721433 48.593783 -10.511440 1.791490 -21.244480 -28.149553 -3.138170 1.464232 -48.931865 1.392690 -8.514118 -49.481113 -34.831915 10.413783 -3.476979 2.990001 0.823750 -0.199620 0.335220 0.046290 15.321244 11.323864 3.671630 59.700160 15.720666 -5.195743 -2.091966 20.696895 -1.392546 2.325077 -0.916051 -0.131210 0.309300 0.137620 -0.159900 
-2.202640 16.974800 -1.436940 5.252588 3.235953 -1.425849 -14.763431 11.999348 3.145661 21.452350 -1.050375 -22.960681 -13.018790 10.661123 23.714327 -0.308071 6.500869 2.038942 0.300250 0.084160 0.273480 18.837502 -9.476375 4.147760 -24.918208 7.415318 -33.091951 26.171299 -20.665264 41.358861 -1.457117 -8.816944 1.092645 -0.023520 -0.001250 0.248180 -5.003821 -1.033177 -8.302777 37.214503 -9.720592 20.975734 -13.490843 -2.233794 -0.026702 5.397086 -9.963605 -8.695448 -22.401975 9.659884 48.019437 -10.284850 1.769000 -21.384650 -27.969523 -3.210716 1.561121 -48.241117 1.523833 -8.421962 -51.009191 -35.283870 11.095984 -3.476469 3.006121 0.826050 -0.199260 0.330780 0.049830 15.570767 11.421213 3.643130 59.562025 15.766457 -5.073077 -1.560465 20.531804 -1.286560 2.326162 -0.918342 -0.137590 0.311820 0.137650 -0.160550 
